<mxfile host="app.diagrams.net" agent="Mozilla/5.0 (X11; Linux x86_64) AppleWebKit/537.36 (KHTML, like Gecko) Chrome/127.0.0.0 Safari/537.36 OPR/113.0.0.0" version="24.8.6">
  <diagram name="Page-1" id="hhjTZ562ztWlgRHuaLM0">
    <mxGraphModel dx="2870" dy="1139" grid="1" gridSize="10" guides="1" tooltips="1" connect="1" arrows="1" fold="1" page="1" pageScale="1" pageWidth="850" pageHeight="1100" math="0" shadow="0">
      <root>
        <mxCell id="0" />
        <mxCell id="1" parent="0" />
        <mxCell id="e7YwpCGllWk7aECOOo9c-38" value="" style="rounded=0;whiteSpace=wrap;html=1;fillColor=#f8cecc;strokeColor=#b85450;" parent="1" vertex="1">
          <mxGeometry x="-20" y="50" width="1270" height="580" as="geometry" />
        </mxCell>
        <mxCell id="e7YwpCGllWk7aECOOo9c-7" value="" style="rounded=1;whiteSpace=wrap;html=1;fillColor=#f5f5f5;fontColor=#333333;strokeColor=#666666;" parent="1" vertex="1">
          <mxGeometry x="20" y="120" width="160" height="100" as="geometry" />
        </mxCell>
        <mxCell id="e7YwpCGllWk7aECOOo9c-2" value="&lt;b&gt;controller&lt;/b&gt;" style="rounded=1;whiteSpace=wrap;html=1;fillColor=#dae8fc;strokeColor=#6c8ebf;" parent="1" vertex="1">
          <mxGeometry x="40" y="140" width="120" height="60" as="geometry" />
        </mxCell>
        <mxCell id="e7YwpCGllWk7aECOOo9c-3" value="domain" style="text;html=1;align=center;verticalAlign=middle;whiteSpace=wrap;rounded=0;fontStyle=1" parent="1" vertex="1">
          <mxGeometry x="580" y="570" width="60" height="30" as="geometry" />
        </mxCell>
        <mxCell id="e7YwpCGllWk7aECOOo9c-4" value="application" style="text;html=1;align=center;verticalAlign=middle;whiteSpace=wrap;rounded=0;fontStyle=1" parent="1" vertex="1">
          <mxGeometry x="70" y="220" width="60" height="30" as="geometry" />
        </mxCell>
        <mxCell id="e7YwpCGllWk7aECOOo9c-8" value="" style="rounded=1;whiteSpace=wrap;html=1;fillColor=#f5f5f5;fontColor=#333333;strokeColor=#666666;" parent="1" vertex="1">
          <mxGeometry x="290" y="120" width="680" height="440" as="geometry" />
        </mxCell>
        <mxCell id="e7YwpCGllWk7aECOOo9c-5" value="&lt;b&gt;ports&lt;/b&gt;" style="rounded=1;whiteSpace=wrap;html=1;fillColor=#dae8fc;strokeColor=#6c8ebf;" parent="1" vertex="1">
          <mxGeometry x="305" y="170" width="120" height="60" as="geometry" />
        </mxCell>
        <mxCell id="e7YwpCGllWk7aECOOo9c-9" value="&lt;b&gt;ports&lt;/b&gt;" style="rounded=1;whiteSpace=wrap;html=1;fillColor=#dae8fc;strokeColor=#6c8ebf;" parent="1" vertex="1">
          <mxGeometry x="830" y="310" width="120" height="60" as="geometry" />
        </mxCell>
        <mxCell id="e7YwpCGllWk7aECOOo9c-1" value="" style="ellipse;whiteSpace=wrap;html=1;aspect=fixed;fillColor=#e1d5e7;strokeColor=#9673a6;" parent="1" vertex="1">
          <mxGeometry x="430" y="150" width="370" height="370" as="geometry" />
        </mxCell>
        <mxCell id="e7YwpCGllWk7aECOOo9c-15" style="edgeStyle=orthogonalEdgeStyle;rounded=0;orthogonalLoop=1;jettySize=auto;html=1;entryX=0;entryY=0.5;entryDx=0;entryDy=0;" parent="1" source="e7YwpCGllWk7aECOOo9c-10" target="e7YwpCGllWk7aECOOo9c-9" edge="1">
          <mxGeometry relative="1" as="geometry" />
        </mxCell>
        <mxCell id="e7YwpCGllWk7aECOOo9c-10" value="&lt;b&gt;service&lt;/b&gt;" style="rounded=1;whiteSpace=wrap;html=1;fillColor=#dae8fc;strokeColor=#6c8ebf;" parent="1" vertex="1">
          <mxGeometry x="550" y="230" width="120" height="60" as="geometry" />
        </mxCell>
        <mxCell id="e7YwpCGllWk7aECOOo9c-12" style="edgeStyle=orthogonalEdgeStyle;rounded=0;orthogonalLoop=1;jettySize=auto;html=1;" parent="1" source="e7YwpCGllWk7aECOOo9c-11" target="e7YwpCGllWk7aECOOo9c-10" edge="1">
          <mxGeometry relative="1" as="geometry" />
        </mxCell>
        <mxCell id="e7YwpCGllWk7aECOOo9c-11" value="&lt;b&gt;domain&lt;/b&gt;" style="rounded=1;whiteSpace=wrap;html=1;fillColor=#dae8fc;strokeColor=#6c8ebf;" parent="1" vertex="1">
          <mxGeometry x="550" y="420" width="120" height="60" as="geometry" />
        </mxCell>
        <mxCell id="e7YwpCGllWk7aECOOo9c-16" value="" style="rounded=1;whiteSpace=wrap;html=1;fillColor=#f5f5f5;fontColor=#333333;strokeColor=#666666;" parent="1" vertex="1">
          <mxGeometry x="1040" y="120" width="160" height="440" as="geometry" />
        </mxCell>
        <mxCell id="e7YwpCGllWk7aECOOo9c-14" style="edgeStyle=orthogonalEdgeStyle;rounded=0;orthogonalLoop=1;jettySize=auto;html=1;" parent="1" source="e7YwpCGllWk7aECOOo9c-5" target="e7YwpCGllWk7aECOOo9c-10" edge="1">
          <mxGeometry relative="1" as="geometry" />
        </mxCell>
        <mxCell id="e7YwpCGllWk7aECOOo9c-17" value="&lt;b&gt;repository&lt;/b&gt;" style="rounded=1;whiteSpace=wrap;html=1;fillColor=#dae8fc;strokeColor=#6c8ebf;" parent="1" vertex="1">
          <mxGeometry x="1060" y="460" width="120" height="60" as="geometry" />
        </mxCell>
        <mxCell id="e7YwpCGllWk7aECOOo9c-19" value="&lt;b&gt;rest&lt;/b&gt;" style="rounded=1;whiteSpace=wrap;html=1;fillColor=#dae8fc;strokeColor=#6c8ebf;" parent="1" vertex="1">
          <mxGeometry x="1060" y="310" width="120" height="60" as="geometry" />
        </mxCell>
        <mxCell id="e7YwpCGllWk7aECOOo9c-21" value="&lt;b&gt;broker&lt;/b&gt;" style="rounded=1;whiteSpace=wrap;html=1;fillColor=#dae8fc;strokeColor=#6c8ebf;" parent="1" vertex="1">
          <mxGeometry x="1060" y="170" width="120" height="60" as="geometry" />
        </mxCell>
        <mxCell id="e7YwpCGllWk7aECOOo9c-32" style="edgeStyle=orthogonalEdgeStyle;rounded=0;orthogonalLoop=1;jettySize=auto;html=1;entryX=0;entryY=0.5;entryDx=0;entryDy=0;" parent="1" source="e7YwpCGllWk7aECOOo9c-9" target="e7YwpCGllWk7aECOOo9c-21" edge="1">
          <mxGeometry relative="1" as="geometry">
            <Array as="points">
              <mxPoint x="1005" y="320" />
              <mxPoint x="1005" y="200" />
            </Array>
          </mxGeometry>
        </mxCell>
        <mxCell id="e7YwpCGllWk7aECOOo9c-33" style="edgeStyle=orthogonalEdgeStyle;rounded=0;orthogonalLoop=1;jettySize=auto;html=1;exitX=1;exitY=0.75;exitDx=0;exitDy=0;entryX=0;entryY=0.5;entryDx=0;entryDy=0;" parent="1" source="e7YwpCGllWk7aECOOo9c-9" target="e7YwpCGllWk7aECOOo9c-17" edge="1">
          <mxGeometry relative="1" as="geometry" />
        </mxCell>
        <mxCell id="e7YwpCGllWk7aECOOo9c-36" style="edgeStyle=orthogonalEdgeStyle;rounded=0;orthogonalLoop=1;jettySize=auto;html=1;" parent="1" source="e7YwpCGllWk7aECOOo9c-9" target="e7YwpCGllWk7aECOOo9c-19" edge="1">
          <mxGeometry relative="1" as="geometry" />
        </mxCell>
        <mxCell id="e7YwpCGllWk7aECOOo9c-37" value="infrastructure" style="text;html=1;align=center;verticalAlign=middle;whiteSpace=wrap;rounded=0;fontStyle=1" parent="1" vertex="1">
          <mxGeometry x="1090" y="570" width="60" height="30" as="geometry" />
        </mxCell>
        <mxCell id="e7YwpCGllWk7aECOOo9c-13" style="edgeStyle=orthogonalEdgeStyle;rounded=0;orthogonalLoop=1;jettySize=auto;html=1;entryX=0;entryY=0.5;entryDx=0;entryDy=0;" parent="1" source="e7YwpCGllWk7aECOOo9c-2" target="e7YwpCGllWk7aECOOo9c-5" edge="1">
          <mxGeometry relative="1" as="geometry" />
        </mxCell>
        <mxCell id="e7YwpCGllWk7aECOOo9c-41" value="ciceroednilson@gmail.com" style="text;html=1;align=center;verticalAlign=middle;whiteSpace=wrap;rounded=0;" parent="1" vertex="1">
          <mxGeometry x="70" y="590" width="60" height="30" as="geometry" />
        </mxCell>
        <mxCell id="e7YwpCGllWk7aECOOo9c-42" value="Hexagonal Architecture" style="text;html=1;align=center;verticalAlign=middle;whiteSpace=wrap;rounded=0;fontSize=14;fontStyle=1" parent="1" vertex="1">
          <mxGeometry x="550" y="60" width="160" height="30" as="geometry" />
        </mxCell>
      </root>
    </mxGraphModel>
  </diagram>
</mxfile>
